<mxfile host="app.diagrams.net" agent="Mozilla/5.0 (X11; Ubuntu; Linux x86_64; rv:134.0) Gecko/20100101 Firefox/134.0" version="26.0.13">
  <diagram name="Page-1" id="BSQDDlLazUIRQ7VLsSYb">
    <mxGraphModel dx="304" dy="544" grid="1" gridSize="10" guides="1" tooltips="1" connect="1" arrows="1" fold="1" page="1" pageScale="1" pageWidth="850" pageHeight="1100" math="0" shadow="0">
      <root>
        <mxCell id="0" />
        <mxCell id="1" parent="0" />
        <mxCell id="494ZGv3BEbuRWp3GV2Er-6" value="" style="rounded=0;whiteSpace=wrap;html=1;" vertex="1" parent="1">
          <mxGeometry x="230" y="169" width="410" height="321" as="geometry" />
        </mxCell>
        <mxCell id="494ZGv3BEbuRWp3GV2Er-7" value="" style="group" vertex="1" connectable="0" parent="1">
          <mxGeometry x="270" y="380" width="140" height="100" as="geometry" />
        </mxCell>
        <mxCell id="494ZGv3BEbuRWp3GV2Er-2" value="IMem" style="rounded=0;whiteSpace=wrap;html=1;" vertex="1" parent="494ZGv3BEbuRWp3GV2Er-7">
          <mxGeometry width="140" height="30" as="geometry" />
        </mxCell>
        <mxCell id="494ZGv3BEbuRWp3GV2Er-4" value="" style="shape=flexArrow;endArrow=classic;startArrow=classic;html=1;rounded=0;width=2.8;endSize=2.372;endWidth=7.279999999999999;startWidth=7.279999999999999;startSize=2.372;entryX=0.493;entryY=1.006;entryDx=0;entryDy=0;exitX=0.61;exitY=0.011;exitDx=0;exitDy=0;exitPerimeter=0;entryPerimeter=0;" edge="1" parent="494ZGv3BEbuRWp3GV2Er-7" target="494ZGv3BEbuRWp3GV2Er-2">
          <mxGeometry width="100" height="100" relative="1" as="geometry">
            <mxPoint x="68.79999999999995" y="60.43999999999994" as="sourcePoint" />
            <mxPoint x="200" y="-10" as="targetPoint" />
          </mxGeometry>
        </mxCell>
        <mxCell id="494ZGv3BEbuRWp3GV2Er-8" value="&lt;div&gt;f&lt;/div&gt;&lt;div&gt;i&lt;/div&gt;&lt;div&gt;f&lt;/div&gt;&lt;div&gt;o&lt;br&gt;&lt;/div&gt;" style="rounded=0;whiteSpace=wrap;html=1;" vertex="1" parent="1">
          <mxGeometry x="520" y="230" width="20" height="120" as="geometry" />
        </mxCell>
        <mxCell id="494ZGv3BEbuRWp3GV2Er-11" value="" style="shape=link;html=1;rounded=0;exitX=0.837;exitY=0.025;exitDx=0;exitDy=0;exitPerimeter=0;entryX=0;entryY=0.75;entryDx=0;entryDy=0;edgeStyle=orthogonalEdgeStyle;elbow=vertical;" edge="1" parent="1" source="494ZGv3BEbuRWp3GV2Er-2" target="494ZGv3BEbuRWp3GV2Er-8">
          <mxGeometry width="100" relative="1" as="geometry">
            <mxPoint x="360" y="320" as="sourcePoint" />
            <mxPoint x="460" y="320" as="targetPoint" />
          </mxGeometry>
        </mxCell>
        <mxCell id="494ZGv3BEbuRWp3GV2Er-12" value="&lt;font style=&quot;font-size: 6px;&quot;&gt;ic_inst(32b)&lt;br&gt;&lt;/font&gt;" style="edgeLabel;html=1;align=center;verticalAlign=middle;resizable=0;points=[];" vertex="1" connectable="0" parent="494ZGv3BEbuRWp3GV2Er-11">
          <mxGeometry x="0.1824" y="2" relative="1" as="geometry">
            <mxPoint as="offset" />
          </mxGeometry>
        </mxCell>
        <mxCell id="494ZGv3BEbuRWp3GV2Er-15" value="" style="shape=link;html=1;rounded=0;" edge="1" parent="1">
          <mxGeometry width="100" relative="1" as="geometry">
            <mxPoint x="540" y="337" as="sourcePoint" />
            <mxPoint x="640" y="337" as="targetPoint" />
          </mxGeometry>
        </mxCell>
        <mxCell id="494ZGv3BEbuRWp3GV2Er-16" value="&lt;font&gt;if_ir&lt;font style=&quot;font-size: 6px;&quot;&gt;(32b)&lt;br&gt;&lt;/font&gt;&lt;/font&gt;" style="edgeLabel;html=1;align=center;verticalAlign=middle;resizable=0;points=[];fontSize=7;" vertex="1" connectable="0" parent="494ZGv3BEbuRWp3GV2Er-15">
          <mxGeometry x="-0.145" relative="1" as="geometry">
            <mxPoint y="-1" as="offset" />
          </mxGeometry>
        </mxCell>
        <mxCell id="494ZGv3BEbuRWp3GV2Er-17" value="&lt;font style=&quot;font-size: 8px;&quot;&gt;imm_test.txt&lt;/font&gt;" style="shape=document;whiteSpace=wrap;html=1;boundedLbl=1;" vertex="1" parent="1">
          <mxGeometry x="310" y="440" width="60" height="30" as="geometry" />
        </mxCell>
        <mxCell id="494ZGv3BEbuRWp3GV2Er-19" value="" style="shape=link;html=1;rounded=0;entryX=1.001;entryY=0.623;entryDx=0;entryDy=0;entryPerimeter=0;startSize=0;endSize=0;shadow=0;flowAnimation=0;fontSize=7;verticalAlign=bottom;" edge="1" parent="1">
          <mxGeometry width="100" relative="1" as="geometry">
            <mxPoint x="410" y="388.83222928664156" as="sourcePoint" />
            <mxPoint x="640.41" y="388.28" as="targetPoint" />
          </mxGeometry>
        </mxCell>
        <mxCell id="494ZGv3BEbuRWp3GV2Er-22" value="&lt;font style=&quot;font-size: 8px;&quot;&gt;if_adr&lt;/font&gt;&lt;font style=&quot;font-size: 7px;&quot;&gt;(32b)&lt;/font&gt;" style="edgeLabel;html=1;align=center;verticalAlign=middle;resizable=0;points=[];" vertex="1" connectable="0" parent="494ZGv3BEbuRWp3GV2Er-19">
          <mxGeometry x="-0.0258" y="2" relative="1" as="geometry">
            <mxPoint as="offset" />
          </mxGeometry>
        </mxCell>
        <mxCell id="494ZGv3BEbuRWp3GV2Er-24" value="&lt;font style=&quot;color: rgb(255, 51, 51);&quot;&gt;dec_pc&lt;/font&gt;" style="text;html=1;align=center;verticalAlign=middle;resizable=0;points=[];autosize=1;strokeColor=none;fillColor=none;fontSize=7;" vertex="1" parent="1">
          <mxGeometry x="628" y="377" width="50" height="20" as="geometry" />
        </mxCell>
        <mxCell id="494ZGv3BEbuRWp3GV2Er-25" value="&lt;font&gt;if_ir&lt;/font&gt;" style="text;html=1;align=center;verticalAlign=middle;resizable=0;points=[];autosize=1;strokeColor=none;fillColor=none;fontColor=light-dark(#1c71d8, #ededed);fontSize=7;" vertex="1" parent="1">
          <mxGeometry x="633" y="326" width="30" height="20" as="geometry" />
        </mxCell>
        <mxCell id="494ZGv3BEbuRWp3GV2Er-28" value="" style="endArrow=none;html=1;rounded=0;exitX=1.003;exitY=0.565;exitDx=0;exitDy=0;exitPerimeter=0;entryX=1;entryY=0.355;entryDx=0;entryDy=0;entryPerimeter=0;spacingTop=0;" edge="1" parent="1">
          <mxGeometry width="50" height="50" relative="1" as="geometry">
            <mxPoint x="540.0600000000001" y="315.79999999999995" as="sourcePoint" />
            <mxPoint x="640" y="315.79999999999995" as="targetPoint" />
          </mxGeometry>
        </mxCell>
        <mxCell id="494ZGv3BEbuRWp3GV2Er-29" value="&lt;font style=&quot;font-size: 6px;&quot;&gt;dec_pop&lt;/font&gt;" style="edgeLabel;html=1;align=center;verticalAlign=middle;resizable=0;points=[];" vertex="1" connectable="0" parent="494ZGv3BEbuRWp3GV2Er-28">
          <mxGeometry x="0.2476" relative="1" as="geometry">
            <mxPoint x="-17" y="-3" as="offset" />
          </mxGeometry>
        </mxCell>
        <mxCell id="494ZGv3BEbuRWp3GV2Er-31" value="" style="endArrow=none;html=1;rounded=0;exitX=1.003;exitY=0.565;exitDx=0;exitDy=0;exitPerimeter=0;entryX=1;entryY=0.355;entryDx=0;entryDy=0;entryPerimeter=0;spacingTop=0;fontSize=11;" edge="1" parent="1">
          <mxGeometry width="50" height="50" relative="1" as="geometry">
            <mxPoint x="540.0600000000001" y="295.79999999999995" as="sourcePoint" />
            <mxPoint x="640" y="295.79999999999995" as="targetPoint" />
          </mxGeometry>
        </mxCell>
        <mxCell id="494ZGv3BEbuRWp3GV2Er-32" value="&lt;font style=&quot;font-size: 6px;&quot;&gt;if2dec_empty&lt;/font&gt;" style="edgeLabel;html=1;align=center;verticalAlign=middle;resizable=0;points=[];" vertex="1" connectable="0" parent="494ZGv3BEbuRWp3GV2Er-31">
          <mxGeometry x="0.2476" relative="1" as="geometry">
            <mxPoint x="-15" y="-3" as="offset" />
          </mxGeometry>
        </mxCell>
        <mxCell id="494ZGv3BEbuRWp3GV2Er-41" value="" style="endArrow=none;html=1;rounded=0;exitX=1;exitY=0.5;exitDx=0;exitDy=0;edgeStyle=orthogonalEdgeStyle;" edge="1" parent="1" source="494ZGv3BEbuRWp3GV2Er-39">
          <mxGeometry width="50" height="50" relative="1" as="geometry">
            <mxPoint x="570" y="230" as="sourcePoint" />
            <mxPoint x="640" y="200" as="targetPoint" />
            <Array as="points">
              <mxPoint x="390" y="216" />
              <mxPoint x="390" y="190" />
              <mxPoint x="630" y="190" />
              <mxPoint x="630" y="200" />
            </Array>
          </mxGeometry>
        </mxCell>
        <mxCell id="494ZGv3BEbuRWp3GV2Er-42" value="&lt;font style=&quot;font-size: 6px;&quot;&gt;dec2if_empty&lt;/font&gt;" style="edgeLabel;html=1;align=center;verticalAlign=middle;resizable=0;points=[];" vertex="1" connectable="0" parent="494ZGv3BEbuRWp3GV2Er-41">
          <mxGeometry x="-0.029" y="-1" relative="1" as="geometry">
            <mxPoint as="offset" />
          </mxGeometry>
        </mxCell>
        <mxCell id="494ZGv3BEbuRWp3GV2Er-44" value="" style="endArrow=none;html=1;rounded=0;entryX=0.5;entryY=0;entryDx=0;entryDy=0;exitX=0.099;exitY=-0.075;exitDx=0;exitDy=0;exitPerimeter=0;edgeStyle=orthogonalEdgeStyle;" edge="1" parent="1" source="494ZGv3BEbuRWp3GV2Er-2" target="494ZGv3BEbuRWp3GV2Er-34">
          <mxGeometry width="50" height="50" relative="1" as="geometry">
            <mxPoint x="370" y="330" as="sourcePoint" />
            <mxPoint x="420" y="280" as="targetPoint" />
          </mxGeometry>
        </mxCell>
        <mxCell id="494ZGv3BEbuRWp3GV2Er-45" value="&lt;font style=&quot;font-size: 6px;&quot;&gt;if_adr_valid&lt;/font&gt;" style="edgeLabel;html=1;align=center;verticalAlign=middle;resizable=0;points=[];" vertex="1" connectable="0" parent="494ZGv3BEbuRWp3GV2Er-44">
          <mxGeometry x="-0.046" relative="1" as="geometry">
            <mxPoint as="offset" />
          </mxGeometry>
        </mxCell>
        <mxCell id="494ZGv3BEbuRWp3GV2Er-47" value="" style="group" vertex="1" connectable="0" parent="1">
          <mxGeometry x="290" y="184" width="55" height="36" as="geometry" />
        </mxCell>
        <mxCell id="494ZGv3BEbuRWp3GV2Er-37" value="&lt;font style=&quot;font-size: 4px;&quot;&gt;&#39;0&#39;&lt;/font&gt;" style="text;html=1;align=center;verticalAlign=middle;whiteSpace=wrap;rounded=0;" vertex="1" parent="494ZGv3BEbuRWp3GV2Er-47">
          <mxGeometry x="11" width="6" height="14" as="geometry" />
        </mxCell>
        <mxCell id="494ZGv3BEbuRWp3GV2Er-38" value="&lt;font style=&quot;font-size: 4px;&quot;&gt;&#39;1&#39;&lt;/font&gt;" style="text;html=1;align=center;verticalAlign=middle;whiteSpace=wrap;rounded=0;" vertex="1" parent="494ZGv3BEbuRWp3GV2Er-47">
          <mxGeometry x="37" width="6" height="14" as="geometry" />
        </mxCell>
        <mxCell id="494ZGv3BEbuRWp3GV2Er-46" value="" style="group" vertex="1" connectable="0" parent="494ZGv3BEbuRWp3GV2Er-47">
          <mxGeometry y="16" width="55" height="20" as="geometry" />
        </mxCell>
        <mxCell id="494ZGv3BEbuRWp3GV2Er-34" value="" style="shape=trapezoid;perimeter=trapezoidPerimeter;whiteSpace=wrap;html=1;fixedSize=1;rotation=-180;size=12.5;" vertex="1" parent="494ZGv3BEbuRWp3GV2Er-46">
          <mxGeometry y="10" width="55" height="10" as="geometry" />
        </mxCell>
        <mxCell id="494ZGv3BEbuRWp3GV2Er-35" value="" style="endArrow=none;html=1;rounded=0;exitX=0.75;exitY=1;exitDx=0;exitDy=0;" edge="1" parent="494ZGv3BEbuRWp3GV2Er-46" source="494ZGv3BEbuRWp3GV2Er-34">
          <mxGeometry width="50" height="50" relative="1" as="geometry">
            <mxPoint x="60" y="70" as="sourcePoint" />
            <mxPoint x="13.699999999999989" as="targetPoint" />
          </mxGeometry>
        </mxCell>
        <mxCell id="494ZGv3BEbuRWp3GV2Er-36" value="" style="endArrow=none;html=1;rounded=0;exitX=0.75;exitY=1;exitDx=0;exitDy=0;" edge="1" parent="494ZGv3BEbuRWp3GV2Er-46">
          <mxGeometry width="50" height="50" relative="1" as="geometry">
            <mxPoint x="40" y="10" as="sourcePoint" />
            <mxPoint x="40" as="targetPoint" />
          </mxGeometry>
        </mxCell>
        <mxCell id="494ZGv3BEbuRWp3GV2Er-39" value="" style="ellipse;whiteSpace=wrap;html=1;aspect=fixed;" vertex="1" parent="494ZGv3BEbuRWp3GV2Er-46">
          <mxGeometry x="48" y="14" width="4" height="4" as="geometry" />
        </mxCell>
        <mxCell id="494ZGv3BEbuRWp3GV2Er-51" value="" style="shape=or;whiteSpace=wrap;html=1;" vertex="1" parent="1">
          <mxGeometry x="590" y="219" width="13" height="30" as="geometry" />
        </mxCell>
        <mxCell id="494ZGv3BEbuRWp3GV2Er-52" value="" style="ellipse;whiteSpace=wrap;html=1;aspect=fixed;fontStyle=1" vertex="1" parent="1">
          <mxGeometry x="587" y="224" width="3" height="3" as="geometry" />
        </mxCell>
        <mxCell id="494ZGv3BEbuRWp3GV2Er-53" value="" style="ellipse;whiteSpace=wrap;html=1;aspect=fixed;fontStyle=1" vertex="1" parent="1">
          <mxGeometry x="587" y="233" width="3" height="3" as="geometry" />
        </mxCell>
        <mxCell id="494ZGv3BEbuRWp3GV2Er-54" value="" style="ellipse;whiteSpace=wrap;html=1;aspect=fixed;" vertex="1" parent="1">
          <mxGeometry x="587" y="242" width="3" height="3" as="geometry" />
        </mxCell>
        <mxCell id="494ZGv3BEbuRWp3GV2Er-55" value="" style="endArrow=none;html=1;rounded=0;exitX=1;exitY=0.5;exitDx=0;exitDy=0;exitPerimeter=0;entryX=1;entryY=0.203;entryDx=0;entryDy=0;entryPerimeter=0;strokeWidth=1;" edge="1" parent="1" source="494ZGv3BEbuRWp3GV2Er-51" target="494ZGv3BEbuRWp3GV2Er-6">
          <mxGeometry width="50" height="50" relative="1" as="geometry">
            <mxPoint x="570" y="260" as="sourcePoint" />
            <mxPoint x="620" y="210" as="targetPoint" />
            <Array as="points" />
          </mxGeometry>
        </mxCell>
        <mxCell id="494ZGv3BEbuRWp3GV2Er-56" value="&lt;font style=&quot;font-size: 6px;&quot;&gt;if_pop&lt;/font&gt;" style="edgeLabel;html=1;align=center;verticalAlign=middle;resizable=0;points=[];" vertex="1" connectable="0" parent="494ZGv3BEbuRWp3GV2Er-55">
          <mxGeometry x="0.2028" y="-1" relative="1" as="geometry">
            <mxPoint x="-4" y="-9" as="offset" />
          </mxGeometry>
        </mxCell>
        <mxCell id="494ZGv3BEbuRWp3GV2Er-57" value="" style="endArrow=none;html=1;rounded=0;entryX=0;entryY=0.5;entryDx=0;entryDy=0;edgeStyle=orthogonalEdgeStyle;" edge="1" parent="1" target="494ZGv3BEbuRWp3GV2Er-52">
          <mxGeometry width="50" height="50" relative="1" as="geometry">
            <mxPoint x="560" y="190" as="sourcePoint" />
            <mxPoint x="610" y="210" as="targetPoint" />
            <Array as="points">
              <mxPoint x="570" y="190" />
              <mxPoint x="570" y="226" />
            </Array>
          </mxGeometry>
        </mxCell>
        <mxCell id="494ZGv3BEbuRWp3GV2Er-58" value="" style="endArrow=none;html=1;rounded=0;exitX=1.024;exitY=0.427;exitDx=0;exitDy=0;edgeStyle=orthogonalEdgeStyle;exitPerimeter=0;" edge="1" parent="1" source="494ZGv3BEbuRWp3GV2Er-8">
          <mxGeometry width="50" height="50" relative="1" as="geometry">
            <mxPoint x="639.9999999999999" y="258.99999999999994" as="sourcePoint" />
            <mxPoint x="612" y="234" as="targetPoint" />
            <Array as="points">
              <mxPoint x="610" y="281" />
              <mxPoint x="610" y="259" />
              <mxPoint x="612" y="259" />
            </Array>
          </mxGeometry>
        </mxCell>
        <mxCell id="494ZGv3BEbuRWp3GV2Er-59" value="&lt;font style=&quot;font-size: 6px;&quot;&gt;if2dec_push&lt;/font&gt;" style="edgeLabel;html=1;align=center;verticalAlign=middle;resizable=0;points=[];" vertex="1" connectable="0" parent="494ZGv3BEbuRWp3GV2Er-58">
          <mxGeometry x="-0.4755" y="-1" relative="1" as="geometry">
            <mxPoint x="-1" y="-2" as="offset" />
          </mxGeometry>
        </mxCell>
        <mxCell id="494ZGv3BEbuRWp3GV2Er-60" value="" style="endArrow=none;html=1;rounded=0;exitX=1;exitY=0.25;exitDx=0;exitDy=0;entryX=0;entryY=0.5;entryDx=0;entryDy=0;edgeStyle=orthogonalEdgeStyle;" edge="1" parent="1" source="494ZGv3BEbuRWp3GV2Er-8" target="494ZGv3BEbuRWp3GV2Er-54">
          <mxGeometry width="50" height="50" relative="1" as="geometry">
            <mxPoint x="530" y="310" as="sourcePoint" />
            <mxPoint x="580" y="260" as="targetPoint" />
          </mxGeometry>
        </mxCell>
        <mxCell id="494ZGv3BEbuRWp3GV2Er-61" value="" style="endArrow=none;html=1;rounded=0;exitX=0.5;exitY=0;exitDx=0;exitDy=0;entryX=0;entryY=0.5;entryDx=0;entryDy=0;edgeStyle=orthogonalEdgeStyle;" edge="1" parent="1" source="494ZGv3BEbuRWp3GV2Er-2" target="494ZGv3BEbuRWp3GV2Er-53">
          <mxGeometry width="50" height="50" relative="1" as="geometry">
            <mxPoint x="340" y="377" as="sourcePoint" />
            <mxPoint x="587.000000000012" y="231.5000000000001" as="targetPoint" />
            <Array as="points">
              <mxPoint x="340" y="227" />
              <mxPoint x="570" y="227" />
              <mxPoint x="570" y="235" />
            </Array>
          </mxGeometry>
        </mxCell>
        <mxCell id="494ZGv3BEbuRWp3GV2Er-64" value="&lt;font style=&quot;font-size: 7px;&quot;&gt;ic_stall&lt;/font&gt;" style="edgeLabel;html=1;align=center;verticalAlign=middle;resizable=0;points=[];" vertex="1" connectable="0" parent="494ZGv3BEbuRWp3GV2Er-61">
          <mxGeometry x="-0.6747" y="-1" relative="1" as="geometry">
            <mxPoint as="offset" />
          </mxGeometry>
        </mxCell>
        <mxCell id="494ZGv3BEbuRWp3GV2Er-65" value="&lt;div&gt;&lt;b&gt;IFETCH stage&lt;/b&gt; &lt;br&gt;&lt;/div&gt;&lt;div&gt;&lt;font style=&quot;font-size: 5px;&quot;&gt;made by https://github.com/lyes-23&lt;/font&gt;&lt;br&gt;&lt;/div&gt;" style="rounded=0;whiteSpace=wrap;html=1;fillColor=#f8cecc;strokeColor=#b85450;" vertex="1" parent="1">
          <mxGeometry x="310" y="490" width="250" height="50" as="geometry" />
        </mxCell>
        <mxCell id="494ZGv3BEbuRWp3GV2Er-66" value="&lt;font style=&quot;font-size: 6px; color: light-dark(rgb(237, 51, 59), rgb(237, 237, 237));&quot;&gt;dec_pop&lt;/font&gt;" style="text;html=1;align=center;verticalAlign=middle;whiteSpace=wrap;rounded=0;" vertex="1" parent="1">
          <mxGeometry x="638" y="308" width="32" height="10" as="geometry" />
        </mxCell>
        <mxCell id="494ZGv3BEbuRWp3GV2Er-67" value="&lt;font style=&quot;font-size: 5px;&quot;&gt;if2dec_empty&lt;/font&gt;" style="text;html=1;align=center;verticalAlign=middle;resizable=0;points=[];autosize=1;strokeColor=none;fillColor=none;fontColor=light-dark(#1c71d8, #ededed);fontSize=7;" vertex="1" parent="1">
          <mxGeometry x="632" y="284" width="50" height="20" as="geometry" />
        </mxCell>
        <mxCell id="494ZGv3BEbuRWp3GV2Er-68" value="&lt;font style=&quot;font-size: 5px;&quot;&gt;if_pop&lt;/font&gt;" style="text;html=1;align=center;verticalAlign=middle;resizable=0;points=[];autosize=1;strokeColor=none;fillColor=none;fontColor=light-dark(#1c71d8, #ededed);fontSize=7;" vertex="1" parent="1">
          <mxGeometry x="632" y="222" width="40" height="20" as="geometry" />
        </mxCell>
        <mxCell id="494ZGv3BEbuRWp3GV2Er-69" value="&lt;font style=&quot;color: light-dark(rgb(237, 51, 59), rgb(237, 237, 237)); font-size: 5px;&quot;&gt;dec2if_empty&lt;/font&gt;" style="text;html=1;align=center;verticalAlign=middle;whiteSpace=wrap;rounded=0;" vertex="1" parent="1">
          <mxGeometry x="642" y="191" width="32" height="10" as="geometry" />
        </mxCell>
      </root>
    </mxGraphModel>
  </diagram>
</mxfile>
